<svg id="Capa_1" enable-background="new 0 0 512.065 512.065" height="512" viewBox="0 0 512.065 512.065" width="512" xmlns="http://www.w3.org/2000/svg"><g><path d="m90.678 6.401h330.709c50.14 0 90.678 40.538 90.678 90.678v317.907c0 50.14-40.539 90.678-90.678 90.678h-330.709c-50.14 0-90.678-40.538-90.678-90.678v-317.907c0-50.14 40.538-90.678 90.678-90.678z" fill="#00005b"/><g fill="#99f"><path d="m244.938 316.414v35.418c.213 2.134-.854 4.054-2.774 4.907-6.614 2.347-13.228 3.84-20.269 4.694-33.107 4.013-68.916.72-97.719-17.282-32.739-20.462-48.157-58.896-47.58-96.439.643-41.784 19.224-82.12 58.034-101.987 20.483-10.455 43.312-15.789 66.355-15.362 8.961 0 17.709.427 26.67 1.28 6.187.64 12.162 2.134 18.136 4.054 1.28 1.067 1.92 2.56 1.707 4.054v38.618c0 2.134-.854 2.774-2.347 2.134-6.401-2.987-13.442-5.121-20.483-6.187-8.321-1.28-16.642-1.92-25.176-1.92-25.949 0-52.324 11.521-64.862 35.204-10.619 20.059-11.662 45.379-4.694 66.781 7.285 22.377 27.167 37.418 49.5 42.673 6.827 1.92 14.082 2.987 21.123 3.2 7.681 0 15.575-.213 23.256-1.067 6.401-.853 12.588-2.347 18.562-4.694.854-.64 1.493-.853 2.134-.427.427.641.64 1.494.427 2.348z"/><path d="m323.881 235.337v120.335c0 1.92-.853 2.774-2.347 2.774h-42.885c-1.493.213-2.774-.853-2.987-2.347 0-.213 0-.427 0-.854v-237.043c0-1.493.853-2.347 2.774-2.347h43.312c1.067-.213 2.347.64 2.347 1.707v.64l.213 81.077c6.187-4.054 12.802-7.468 19.842-10.028 7.254-2.56 15.575-3.2 25.177-3.2 6.828 0 13.655 1.067 20.056 2.987 6.828 1.92 13.228 5.334 18.776 10.028 5.761 5.121 9.814 12.161 13.228 20.909s5.121 20.269 5.121 34.138v101.133c0 2.134-.853 2.987-2.774 2.987h-40.325c-1.707.213-3.2-.853-3.414-2.56 0-.213 0-.64 0-.853v-96.012c.213-6.188-.853-12.375-3.2-18.136-1.92-4.267-4.907-8.108-8.961-10.881-4.694-2.774-10.241-4.054-15.789-3.84-5.121 0-10.241.64-15.149 2.134-4.694 1.918-9.174 4.265-13.015 7.252z"/></g></g></svg>